<svg width="192" height="47" viewBox="0 0 192 47" fill="none" xmlns="http://www.w3.org/2000/svg">
<path d="M66.2986 13.8753C65.6535 13.3215 64.9745 12.9049 64.2566 12.6304C63.5388 12.3511 62.787 12.2139 61.9964 12.2139C60.4637 12.2139 59.222 12.7089 58.2616 13.7038C57.3013 14.6937 56.8211 15.9827 56.8211 17.5608C56.8211 19.0899 57.2867 20.3494 58.2228 21.3394C59.1589 22.3294 60.3327 22.8293 61.7587 22.8293C62.5881 22.8293 63.3787 22.6823 64.1257 22.3833C64.8726 22.0893 65.5953 21.6384 66.2841 21.0405V23.6429C65.6729 24.0888 65.0036 24.4172 64.2857 24.6378C63.563 24.8583 62.7821 24.9661 61.943 24.9661C60.8711 24.9661 59.8816 24.7897 58.9746 24.4368C58.0676 24.0839 57.2673 23.5596 56.5786 22.8685C55.8947 22.1922 55.3708 21.3933 55.0071 20.4769C54.6384 19.5604 54.459 18.5802 54.459 17.5412C54.459 16.5022 54.6433 15.5318 55.0071 14.6153C55.3757 13.7038 55.9044 12.9049 56.598 12.2139C57.2916 11.5179 58.0919 10.9935 58.9892 10.6358C59.8865 10.278 60.8614 10.1016 61.9042 10.1016C62.7288 10.1016 63.5097 10.2241 64.2566 10.4642C65.0036 10.7044 65.7263 11.072 66.4296 11.562L66.2986 13.8753Z" fill="#1D1D1D"/>
<path d="M69.1211 24.5836V10.4346H71.3959V15.6541H78.2834V10.4346H80.5582V24.5836H78.2834V17.7125H71.3959V24.5836H69.1211Z" fill="#1D1D1D"/>
<path d="M85.9076 18.2574V24.5894H83.7734V10.4404H86.9504C87.8817 10.4404 88.6044 10.5041 89.1185 10.6218C89.6326 10.7443 90.0691 10.9452 90.4329 11.2295C90.8646 11.5726 91.1993 12.0136 91.4369 12.5527C91.6746 13.0918 91.791 13.6849 91.791 14.3318C91.791 15.4639 91.5194 16.351 90.9762 16.993C90.4329 17.635 89.6326 18.0173 88.5753 18.1496L93.3965 24.5845H90.8258L86.1695 18.2525H85.9076V18.2574ZM86.0531 16.4686H86.4654C87.6682 16.4686 88.4686 16.3265 88.8663 16.0422C89.2592 15.758 89.458 15.2581 89.458 14.5327C89.458 13.7535 89.2446 13.2046 88.8226 12.886C88.4006 12.5674 87.6149 12.4057 86.4654 12.4057H86.0531V16.4686Z" fill="#1D1D1D"/>
<path d="M94.7852 24.5836V10.4346H97.06V24.5836H94.7852Z" fill="#1D1D1D"/>
<path d="M99.5273 21.7559L101.346 20.9032C101.516 21.5354 101.836 22.0157 102.292 22.3489C102.753 22.6822 103.34 22.8488 104.053 22.8488C104.727 22.8488 105.265 22.6577 105.663 22.2803C106.061 21.898 106.26 21.3933 106.26 20.7512C106.26 19.9181 105.576 19.178 104.213 18.5262C104.024 18.4282 103.873 18.3596 103.771 18.3155C102.229 17.5558 101.201 16.8697 100.687 16.2522C100.172 15.6347 99.9154 14.8848 99.9154 13.9977C99.9154 12.846 100.303 11.9099 101.079 11.1944C101.856 10.4789 102.869 10.1211 104.125 10.1211C105.159 10.1211 106.022 10.322 106.716 10.7239C107.409 11.1258 107.894 11.7041 108.161 12.4588L106.381 13.3851C106.1 12.9391 105.794 12.6157 105.459 12.4098C105.125 12.204 104.741 12.1011 104.305 12.1011C103.694 12.1011 103.209 12.2628 102.845 12.5863C102.486 12.9097 102.307 13.341 102.307 13.8801C102.307 14.7329 103.097 15.5219 104.678 16.2571C104.8 16.3159 104.897 16.36 104.965 16.3943C106.347 17.0363 107.298 17.6685 107.817 18.2861C108.336 18.9036 108.593 19.6681 108.593 20.5895C108.593 21.9275 108.175 22.9959 107.341 23.7849C106.507 24.574 105.377 24.9709 103.956 24.9709C102.763 24.9709 101.788 24.6916 101.026 24.1378C100.265 23.5791 99.765 22.7851 99.5273 21.7559Z" fill="#1D1D1D"/>
<path d="M115.606 12.391V24.5894H113.332V12.391H109.611V10.4404H119.312V12.391H115.606Z" fill="#1D1D1D"/>
<path d="M126.961 24.5836V10.4346H134.775V12.3851H129.236V15.9138H134.775V17.933H129.236V24.5836H126.961Z" fill="#1D1D1D"/>
<path d="M146.495 24.5847L144.909 20.9433H139.36L137.735 24.5847H135.344L142.125 9.87207L148.896 24.5847H146.495ZM140.204 19.027H144.108L142.673 15.7973C142.59 15.5915 142.503 15.3562 142.416 15.0867C142.328 14.8171 142.236 14.5231 142.149 14.1947C142.071 14.5035 141.989 14.7926 141.906 15.0573C141.819 15.3268 141.732 15.5719 141.644 15.7973L140.204 19.027Z" fill="#1D1D1D"/>
<path d="M161.636 17.6C161.612 17.4922 161.568 17.1883 161.51 16.6933C161.462 16.2816 161.413 15.9386 161.374 15.669C161.316 15.9925 161.234 16.3111 161.132 16.6345C161.025 16.958 160.894 17.2863 160.734 17.6196L157.072 25.1572L153.41 17.4628C153.255 17.1491 153.124 16.8404 153.012 16.5463C152.901 16.2522 152.804 15.9582 152.721 15.669C152.716 15.9631 152.692 16.2767 152.648 16.6002C152.605 16.9237 152.547 17.2667 152.464 17.6196L150.961 24.5887H148.865L152.173 9.8418L156.306 18.7713C156.369 18.9134 156.466 19.1487 156.597 19.4771C156.728 19.8054 156.883 20.2122 157.072 20.6925C157.208 20.2857 157.416 19.7711 157.703 19.1438C157.78 18.9772 157.838 18.8497 157.872 18.7566L161.908 9.83691L165.293 24.5838H163.179L161.636 17.6Z" fill="#1D1D1D"/>
<path d="M167.156 24.5836V10.4346H169.431V24.5836H167.156Z" fill="#1D1D1D"/>
<path d="M172.705 24.5836V10.4346H174.98V22.5252H180.068V24.5836H172.705Z" fill="#1D1D1D"/>
<path d="M184.927 24.5836V18.1094L180.213 10.4346H182.604L185.539 15.2375C185.606 15.36 185.699 15.5217 185.8 15.7227C185.907 15.9236 186.014 16.1393 186.121 16.3696C186.208 16.1442 186.305 15.9334 186.402 15.7325C186.499 15.5315 186.606 15.3502 186.712 15.1836L189.724 10.4395H191.999L187.178 18.1143V24.5885H184.927V24.5836Z" fill="#1D1D1D"/>
<path d="M81.5089 32.5089C81.4943 32.4403 81.4701 32.2541 81.4313 31.9502C81.4021 31.6953 81.3731 31.4846 81.3488 31.318C81.3149 31.5189 81.2615 31.7149 81.1984 31.911C81.1354 32.1119 81.0529 32.3129 80.9559 32.5187L78.7005 37.1648L76.4451 32.4256C76.353 32.2295 76.2705 32.0433 76.2026 31.862C76.1347 31.6806 76.0716 31.4993 76.0231 31.318C76.0183 31.4993 76.0037 31.6904 75.9795 31.8914C75.9552 32.0923 75.9164 32.3031 75.8631 32.5187L74.9367 36.8119H73.6465L75.6836 27.7256L78.23 33.2244C78.2688 33.3127 78.3271 33.4548 78.4095 33.6606C78.492 33.8616 78.589 34.1115 78.7005 34.4105C78.783 34.1605 78.9139 33.842 79.0886 33.4597C79.1371 33.3568 79.171 33.2783 79.1953 33.2195L81.6835 27.7256L83.7691 36.8119H82.4692L81.5089 32.5089Z" fill="#1D1D1D"/>
<path d="M91.4277 36.8115V28.0977H92.8295V36.8115H91.4277Z" fill="#1D1D1D"/>
<path d="M101.361 36.8109V27.749L106.842 33.0763C106.993 33.2283 107.143 33.39 107.298 33.5566C107.453 33.7282 107.613 33.9193 107.783 34.1349V28.0921H109.078V37.149L103.486 31.7237C103.335 31.5767 103.19 31.4198 103.054 31.2581C102.913 31.0964 102.782 30.9248 102.656 30.7484V36.8109H101.361Z" fill="#1D1D1D"/>
<path d="M117.59 36.8115V28.0977H118.992V36.8115H117.59Z" fill="#1D1D1D"/>
<path d="M127.029 35.0675L128.15 34.5431C128.256 34.9303 128.45 35.2292 128.732 35.4351C129.013 35.6409 129.377 35.7438 129.818 35.7438C130.235 35.7438 130.565 35.6262 130.813 35.391C131.06 35.1557 131.181 34.8421 131.181 34.45C131.181 33.9354 130.759 33.4796 129.92 33.0826C129.804 33.0238 129.712 32.9797 129.648 32.9503C128.698 32.4798 128.062 32.0583 127.747 31.681C127.432 31.3036 127.272 30.838 127.272 30.2891C127.272 29.5785 127.509 29.0051 127.99 28.564C128.465 28.1229 129.091 27.9023 129.867 27.9023C130.502 27.9023 131.036 28.0249 131.462 28.2748C131.889 28.5248 132.185 28.8776 132.35 29.3432L131.254 29.9166C131.079 29.6422 130.89 29.4412 130.686 29.3138C130.483 29.1864 130.245 29.1227 129.978 29.1227C129.6 29.1227 129.304 29.2207 129.081 29.4216C128.858 29.6226 128.746 29.8872 128.746 30.2205C128.746 30.7449 129.231 31.235 130.206 31.6859C130.279 31.7202 130.337 31.7496 130.381 31.7692C131.235 32.1662 131.817 32.5533 132.137 32.9356C132.457 33.313 132.612 33.7884 132.612 34.3569C132.612 35.1802 132.355 35.837 131.841 36.3222C131.327 36.8073 130.633 37.0524 129.755 37.0524C129.023 37.0524 128.416 36.8809 127.951 36.5378C127.485 36.1898 127.175 35.7046 127.029 35.0675Z" fill="#1D1D1D"/>
<path d="M143.452 29.2984V36.8115H142.05V29.2984H139.756V28.0977H145.731V29.2984H143.452Z" fill="#1D1D1D"/>
<path d="M154.633 32.9104V36.8115H153.318V28.0977H155.273C155.845 28.0977 156.292 28.1369 156.607 28.2104C156.922 28.2839 157.194 28.4113 157.417 28.5878C157.684 28.7985 157.892 29.068 158.038 29.4013C158.183 29.7346 158.256 30.1022 158.256 30.4991C158.256 31.2 158.091 31.744 157.756 32.1409C157.422 32.5379 156.932 32.7732 156.277 32.8516L159.245 36.8164H157.659L154.788 32.9153H154.633V32.9104ZM154.725 31.8077H154.977C155.719 31.8077 156.214 31.7195 156.457 31.5479C156.699 31.3715 156.82 31.0627 156.82 30.6167C156.82 30.1365 156.689 29.7983 156.427 29.6022C156.166 29.4062 155.68 29.3082 154.977 29.3082H154.725V31.8077Z" fill="#1D1D1D"/>
<path d="M168.452 36.8115V32.8222L165.547 28.0928H167.021L168.831 31.0529C168.874 31.1264 168.928 31.2294 168.991 31.3519C169.054 31.4744 169.122 31.6067 169.189 31.7489C169.243 31.6116 169.301 31.4793 169.364 31.3568C169.427 31.2343 169.49 31.1216 169.553 31.0186L171.411 28.0977H172.813L169.844 32.8271V36.8164H168.452V36.8115Z" fill="#1D1D1D"/>
</svg>
