<svg width="48" height="46" viewBox="0 0 48 46" fill="none" xmlns="http://www.w3.org/2000/svg">
<path fill-rule="evenodd" clip-rule="evenodd" d="M23.5014 0C36.4819 0 47.0027 10.1555 47.0027 22.6815C47.0027 35.2074 36.4819 45.3629 23.5014 45.3629C10.5208 45.3629 0 35.2074 0 22.6815C0 10.1555 10.5208 0 23.5014 0Z" fill="#139FDD"/>
<path fill-rule="evenodd" clip-rule="evenodd" d="M23.5011 5.93349C33.0884 5.93349 40.8573 13.4344 40.8573 22.6889C40.8573 31.9433 33.0884 39.4443 23.5011 39.4443C13.9139 39.4443 6.14504 31.9433 6.14504 22.6889C6.14504 13.4344 13.9139 5.93349 23.5011 5.93349ZM23.5011 5.36523C33.4131 5.36523 41.4417 13.1178 41.4417 22.6808C41.4417 32.2437 33.405 39.9963 23.5011 39.9963C13.5892 39.9963 5.56055 32.2437 5.56055 22.6808C5.56055 13.1178 13.5892 5.36523 23.5011 5.36523Z" fill="white"/>
<path fill-rule="evenodd" clip-rule="evenodd" d="M26.6897 25.6697C27.3148 25.483 27.8993 25.2638 28.4026 25.0365C27.8749 25.3206 27.2986 25.5723 26.6816 25.7915C26.6816 25.7509 26.6897 25.7103 26.6897 25.6697ZM13.287 21.2373C10.1129 23.5915 13.6767 25.3287 15.9172 25.9782C18.3445 26.6763 21.1858 26.6925 23.7186 26.3191C23.7104 26.3922 23.7023 26.4652 23.6942 26.5464C20.9503 26.9929 17.9305 26.8955 15.4789 26.2055C13.0841 25.5236 9.50408 23.5509 13.287 21.2373Z" fill="white"/>
<path fill-rule="evenodd" clip-rule="evenodd" d="M25.8796 30.3854C26.8457 30.1176 27.7792 29.7766 28.6803 29.3707C27.7954 29.8497 26.8375 30.2312 25.839 30.5316L25.8796 30.3854ZM14.2791 26.0586C12.5419 27.3493 12.7692 28.3803 13.7027 29.1678C15.0666 30.3124 17.1123 30.8482 19.0606 31.0268C20.3838 31.1485 21.7314 31.1161 23.0627 30.9456L23.0302 31.1404C21.1956 31.3921 19.3203 31.3758 17.5993 31.0998C16.0975 30.8644 14.6769 30.3773 13.5891 29.5249C12.4445 28.6239 12.1035 27.3818 14.2791 26.0586Z" fill="white"/>
<path fill-rule="evenodd" clip-rule="evenodd" d="M26.7729 21.6834C27.1869 21.5454 27.5685 21.3993 27.9094 21.245C27.5604 21.4399 27.1788 21.6103 26.7729 21.7646V21.6834ZM15.1968 18.0547C12.526 20.0355 15.5296 21.4967 17.4048 22.0406C19.4181 22.6251 21.7804 22.6413 23.8911 22.3409C23.8911 22.4059 23.8911 22.4627 23.8911 22.5277C21.5937 22.893 19.0852 22.8118 17.0314 22.2273C15.0263 21.659 12.0064 19.9949 15.1968 18.0547Z" fill="white"/>
<path fill-rule="evenodd" clip-rule="evenodd" d="M24.9637 33.559C24.9962 33.5509 25.0367 33.5428 25.0692 33.5428C25.0286 33.5509 24.9962 33.559 24.9637 33.559ZM20.0605 16.2598C16.1639 17.4287 13.3469 20.7977 13.3469 24.7673C13.3469 29.5326 17.3978 33.4292 22.5121 33.7052L22.4796 33.8432C17.1299 33.8188 12.7949 29.7599 12.7949 24.7673C12.7949 21.6176 14.5159 18.8413 17.1299 17.2177L17.2679 17.1527C18.169 16.7387 19.1025 16.4384 20.0605 16.2598Z" fill="white"/>
<path fill-rule="evenodd" clip-rule="evenodd" d="M25.1566 16.3744C26.9588 22.1219 26.2201 28.121 23.9795 34.4205L22.7862 35.3541C24.8319 26.4244 25.0024 21.1639 23.6792 16.1065C24.1744 16.1633 24.6695 16.2526 25.1566 16.3744ZM20.9921 8.62988C22.2991 10.2941 23.3301 11.9745 24.1175 13.6711C23.7035 13.598 23.2814 13.5412 22.8674 13.5087C22.3154 11.9745 21.6416 10.4077 20.8379 8.71106L20.9921 8.62988Z" fill="white"/>
<path fill-rule="evenodd" clip-rule="evenodd" d="M23.5332 36.1004C26.6099 33.1211 28.2984 31.6031 32.7876 32.7314V30.978C27.8682 30.2149 25.7981 32.3499 23.5332 36.1004Z" fill="white"/>
<path fill-rule="evenodd" clip-rule="evenodd" d="M24.0215 34.372C27.5122 29.6392 29.8096 28.381 35.3541 28.5433V20.3929C31.9933 20.0926 28.5269 20.9612 26.2783 23.429C28.3402 22.1789 31.4088 21.3103 34.1039 21.6431V27.1389C28.5919 27.4474 26.4 29.2415 24.0215 34.372Z" fill="white"/>
<path fill-rule="evenodd" clip-rule="evenodd" d="M17.0007 16.5766C21.1651 14.6527 26.1333 15.0505 31.0771 18.4762L31.2476 18.3464C27.2292 14.0357 21.7172 12.8505 15.6855 15.3184L17.0007 16.5766Z" fill="white"/>
</svg>
