<svg width="527" height="84" viewBox="0 0 527 84" fill="none" xmlns="http://www.w3.org/2000/svg">
<circle cx="41.6852" cy="41.6852" r="39.7312" stroke="black" stroke-width="3.90799"/>
<circle cx="317.435" cy="41.6852" r="39.7312" stroke="black" stroke-width="3.90799"/>
<path d="M45.0828 64.7768V17.3274H44.8097C42.2153 20.8093 37.2997 24.1547 32.0427 25.7932L32.1793 26.0663C34.7736 25.247 37.1632 24.1547 39.2113 22.9258V64.7768H32.3841V65.1182H51.9783V64.7768H45.0828Z" fill="black"/>
<path d="M318.686 35.3514C312.883 35.3514 309.742 40.9497 308.855 46.1384C308.855 25.8615 315.204 17.7371 327.357 16.9861V16.6447C315.818 16.6447 302.574 26.1346 302.574 46.1384C302.574 60.9535 311.176 65.8009 318.413 65.8009C325.65 65.8009 332.955 59.5881 332.955 50.0982C332.955 40.5401 325.923 35.3514 318.686 35.3514ZM318.413 65.4595C312.337 65.4595 309.196 60.9535 308.855 48.4597C309.128 42.7248 312.2 35.6927 318.686 35.6927C324.284 35.6927 326.674 41.9055 326.674 50.0982C326.674 58.2226 324.83 65.4595 318.413 65.4595Z" fill="black"/>
<path d="M122.966 48.2818C122.966 49.3371 122.771 50.4097 122.381 51.4994C121.991 52.5892 121.4 53.5986 120.609 54.5278C119.817 55.457 118.819 56.2083 117.615 56.7819C116.41 57.344 114.994 57.625 113.365 57.625C111.151 57.625 109.264 57.0687 107.704 55.956C106.155 54.8318 104.974 53.2889 104.159 51.3274C103.345 49.3658 102.937 47.1174 102.937 44.5823C102.937 42.0357 103.345 39.7874 104.159 37.8373C104.974 35.8757 106.155 34.3386 107.704 33.2259C109.264 32.1132 111.151 31.5568 113.365 31.5568C115.212 31.5568 116.783 31.9182 118.079 32.6409C119.387 33.3635 120.425 34.2927 121.194 35.4284C121.974 36.564 122.49 37.7455 122.742 38.9729C122.891 39.6383 122.966 40.2692 122.966 40.8657H119.215C119.215 40.5445 119.186 40.1946 119.129 39.8161C119.003 38.8984 118.693 38.0552 118.2 37.2867C117.718 36.5181 117.07 35.9044 116.255 35.4456C115.452 34.9867 114.489 34.7573 113.365 34.7573C112.057 34.7573 110.904 35.1244 109.906 35.8585C108.908 36.5812 108.128 37.671 107.566 39.1278C107.015 40.5846 106.74 42.4028 106.74 44.5823C106.74 46.7504 107.015 48.5685 107.566 50.0369C108.128 51.4937 108.908 52.5949 109.906 53.3405C110.904 54.0747 112.057 54.4418 113.365 54.4418C114.317 54.4418 115.154 54.2697 115.877 53.9256C116.6 53.5814 117.208 53.1169 117.701 52.5318C118.194 51.9468 118.567 51.2872 118.819 50.5531C119.083 49.8189 119.215 49.0618 119.215 48.2818H122.966ZM145.017 31.8838V57.2637H141.283V44.6512L142.969 46.1653H128.963L130.649 44.6684V57.2637H126.915V31.8838H130.649V44.6167L128.963 43.0509H142.969L141.283 44.6167V31.8838H145.017ZM167.631 47.972C167.631 51.2299 166.834 53.656 165.239 55.2505C163.645 56.8335 161.442 57.625 158.632 57.625C155.833 57.625 153.636 56.8335 152.042 55.2505C150.459 53.656 149.667 51.2299 149.667 47.972C149.667 47.4903 149.667 46.9798 149.667 46.4406C149.667 45.89 149.667 45.3165 149.667 44.72V31.8838H153.401V45.1329C153.401 45.6836 153.401 46.194 153.401 46.6643C153.401 47.1347 153.401 47.5648 153.401 47.9548C153.401 50.2491 153.837 51.9066 154.709 52.9276C155.58 53.937 156.888 54.4418 158.632 54.4418C160.387 54.4418 161.7 53.937 162.572 52.9276C163.455 51.9066 163.897 50.2491 163.897 47.9548V31.8838H167.631V47.972ZM172.284 57.2637V31.8838H181.576C184.019 31.8838 185.866 32.4516 187.117 33.5872C188.367 34.7229 188.992 36.4263 188.992 38.6976C188.992 40.0283 188.734 41.1639 188.218 42.1046C187.713 43.0452 187.099 43.7736 186.377 44.2898C185.666 44.7945 184.995 45.0813 184.364 45.1501C185.006 45.196 185.631 45.3681 186.239 45.6663C186.847 45.9646 187.352 46.4234 187.753 47.0429C188.155 47.6623 188.356 48.4997 188.356 49.5551C188.356 50.4498 188.356 51.356 188.356 52.2737C188.356 53.1914 188.356 54.1034 188.356 55.0096C188.356 55.5258 188.396 55.9961 188.476 56.4205C188.568 56.8335 188.677 57.1145 188.803 57.2637H185.035C184.931 57.0916 184.84 56.8048 184.759 56.4033C184.679 56.0018 184.639 55.5373 184.639 55.0096C184.639 54.1837 184.639 53.352 184.639 52.5146C184.639 51.6772 184.639 50.8398 184.639 50.0024C184.639 48.9127 184.312 48.0982 183.658 47.5591C183.016 47.0085 182.075 46.7332 180.836 46.7332H174.917L175.932 45.4082V57.2637H172.284ZM175.932 45.0985L174.917 43.636H180.871C181.674 43.636 182.396 43.4467 183.039 43.0681C183.681 42.6781 184.192 42.139 184.57 41.4507C184.96 40.751 185.155 39.9365 185.155 39.0073C185.155 37.6079 184.771 36.5869 184.002 35.9446C183.234 35.3022 182.132 34.981 180.699 34.981H174.831L175.932 33.5528V45.0985ZM212.596 48.2818C212.596 49.3371 212.401 50.4097 212.01 51.4994C211.62 52.5892 211.03 53.5986 210.238 54.5278C209.447 55.457 208.449 56.2083 207.244 56.7819C206.04 57.344 204.623 57.625 202.994 57.625C200.78 57.625 198.893 57.0687 197.333 55.956C195.785 54.8318 194.603 53.2889 193.789 51.3274C192.974 49.3658 192.567 47.1174 192.567 44.5823C192.567 42.0357 192.974 39.7874 193.789 37.8373C194.603 35.8757 195.785 34.3386 197.333 33.2259C198.893 32.1132 200.78 31.5568 202.994 31.5568C204.841 31.5568 206.413 31.9182 207.709 32.6409C209.017 33.3635 210.055 34.2927 210.823 35.4284C211.603 36.564 212.119 37.7455 212.372 38.9729C212.521 39.6383 212.596 40.2692 212.596 40.8657H208.844C208.844 40.5445 208.816 40.1946 208.758 39.8161C208.632 38.8984 208.323 38.0552 207.829 37.2867C207.347 36.5181 206.699 35.9044 205.885 35.4456C205.082 34.9867 204.118 34.7573 202.994 34.7573C201.686 34.7573 200.534 35.1244 199.536 35.8585C198.538 36.5812 197.758 37.671 197.196 39.1278C196.645 40.5846 196.37 42.4028 196.37 44.5823C196.37 46.7504 196.645 48.5685 197.196 50.0369C197.758 51.4937 198.538 52.5949 199.536 53.3405C200.534 54.0747 201.686 54.4418 202.994 54.4418C203.946 54.4418 204.784 54.2697 205.506 53.9256C206.229 53.5814 206.837 53.1169 207.33 52.5318C207.824 51.9468 208.196 51.2872 208.449 50.5531C208.713 49.8189 208.844 49.0618 208.844 48.2818H212.596ZM234.646 31.8838V57.2637H230.912V44.6512L232.599 46.1653H218.592L220.279 44.6684V57.2637H216.545V31.8838H220.279V44.6167L218.592 43.0509H232.599L230.912 44.6167V31.8838H234.646Z" fill="black"/>
<path d="M396.585 48.2818C396.585 49.3371 396.39 50.4097 396 51.4994C395.61 52.5892 395.019 53.5986 394.227 54.5278C393.436 55.457 392.438 56.2083 391.233 56.7819C390.029 57.344 388.612 57.625 386.983 57.625C384.769 57.625 382.882 57.0687 381.322 55.956C379.774 54.8318 378.592 53.2889 377.778 51.3274C376.963 49.3658 376.556 47.1174 376.556 44.5823C376.556 42.0357 376.963 39.7874 377.778 37.8373C378.592 35.8757 379.774 34.3386 381.322 33.2259C382.882 32.1132 384.769 31.5568 386.983 31.5568C388.83 31.5568 390.402 31.9182 391.698 32.6409C393.006 33.3635 394.044 34.2927 394.812 35.4284C395.592 36.564 396.109 37.7455 396.361 38.9729C396.51 39.6383 396.585 40.2692 396.585 40.8657H392.833C392.833 40.5445 392.805 40.1946 392.747 39.8161C392.621 38.8984 392.312 38.0552 391.818 37.2867C391.337 36.5181 390.688 35.9044 389.874 35.4456C389.071 34.9867 388.107 34.7573 386.983 34.7573C385.675 34.7573 384.523 35.1244 383.525 35.8585C382.527 36.5812 381.747 37.671 381.185 39.1278C380.634 40.5846 380.359 42.4028 380.359 44.5823C380.359 46.7504 380.634 48.5685 381.185 50.0369C381.747 51.4937 382.527 52.5949 383.525 53.3405C384.523 54.0747 385.675 54.4418 386.983 54.4418C387.935 54.4418 388.773 54.2697 389.495 53.9256C390.218 53.5814 390.826 53.1169 391.319 52.5318C391.813 51.9468 392.185 51.2872 392.438 50.5531C392.702 49.8189 392.833 49.0618 392.833 48.2818H396.585ZM402.599 34.981L404.285 33.0194V44.1694L403.39 42.9821H413.009V46.0793H403.39L404.285 44.892V56.128L402.599 54.1665H414.919V57.2637H400.534V31.8838H414.919V34.981H402.599ZM423.186 57.2637H419.555V31.8838H425.509L435.523 55.4914L435.076 55.6634V31.8838H438.724V57.2637H432.684L422.704 33.6905L423.186 33.5356V57.2637ZM459.092 34.981H451.401L452.571 33.0194V57.2637H448.837V33.0194L450.128 34.981H442.333V31.8838H459.092V34.981ZM464.738 34.981L466.424 33.0194V44.1694L465.529 42.9821H475.148V46.0793H465.529L466.424 44.892V56.128L464.738 54.1665H477.058V57.2637H462.673V31.8838H477.058V34.981H464.738ZM481.694 57.2637V31.8838H490.986C493.429 31.8838 495.276 32.4516 496.527 33.5872C497.777 34.7229 498.402 36.4263 498.402 38.6976C498.402 40.0283 498.144 41.1639 497.628 42.1046C497.123 43.0452 496.509 43.7736 495.787 44.2898C495.075 44.7945 494.404 45.0813 493.773 45.1501C494.416 45.196 495.041 45.3681 495.649 45.6663C496.257 45.9646 496.762 46.4234 497.163 47.0429C497.565 47.6623 497.765 48.4997 497.765 49.5551C497.765 50.4498 497.765 51.356 497.765 52.2737C497.765 53.1914 497.765 54.1034 497.765 55.0096C497.765 55.5258 497.806 55.9961 497.886 56.4205C497.978 56.8335 498.087 57.1145 498.213 57.2637H494.445C494.341 57.0916 494.249 56.8048 494.169 56.4033C494.089 56.0018 494.049 55.5373 494.049 55.0096C494.049 54.1837 494.049 53.352 494.049 52.5146C494.049 51.6772 494.049 50.8398 494.049 50.0024C494.049 48.9127 493.722 48.0982 493.068 47.5591C492.426 47.0085 491.485 46.7332 490.246 46.7332H484.327L485.342 45.4082V57.2637H481.694ZM485.342 45.0985L484.327 43.636H490.28C491.083 43.636 491.806 43.4467 492.449 43.0681C493.091 42.6781 493.601 42.139 493.98 41.4507C494.37 40.751 494.565 39.9365 494.565 39.0073C494.565 37.6079 494.181 36.5869 493.412 35.9446C492.644 35.3022 491.542 34.981 490.108 34.981H484.241L485.342 33.5528V45.0985ZM510.649 57.625C508.859 57.625 507.317 57.344 506.02 56.7819C504.736 56.2198 503.738 55.3709 503.026 54.2353C502.327 53.0882 501.977 51.6715 501.977 49.9852C501.977 49.7673 501.977 49.578 501.977 49.4174C501.977 49.2568 501.977 49.0733 501.977 48.8668H505.711C505.711 49.0618 505.711 49.2339 505.711 49.383C505.711 49.5207 505.711 49.6985 505.711 49.9164C505.711 51.4765 506.129 52.6236 506.967 53.3577C507.804 54.0804 509.026 54.4418 510.632 54.4418C512.272 54.4418 513.522 54.1665 514.383 53.6158C515.243 53.0538 515.673 52.1533 515.673 50.9144C515.673 50.0311 515.404 49.2912 514.865 48.6947C514.337 48.0868 513.603 47.5648 512.662 47.1289C511.733 46.693 510.66 46.2858 509.444 45.9072C508.079 45.4828 506.846 44.9437 505.745 44.2898C504.644 43.6245 503.766 42.7986 503.112 41.812C502.47 40.8141 502.149 39.5981 502.149 38.1642C502.149 36.7533 502.504 35.5545 503.216 34.568C503.927 33.5815 504.913 32.8359 506.175 32.3311C507.437 31.8149 508.882 31.5568 510.511 31.5568C512.243 31.5568 513.752 31.8264 515.037 32.3656C516.333 32.8932 517.337 33.6962 518.048 34.7745C518.77 35.8413 519.132 37.1892 519.132 38.8181C519.132 39.0475 519.132 39.2482 519.132 39.4203C519.132 39.5809 519.132 39.7817 519.132 40.0225H515.381C515.381 39.8275 515.381 39.6497 515.381 39.4891C515.381 39.3285 515.381 39.1565 515.381 38.9729C515.381 37.4817 514.974 36.4034 514.159 35.7381C513.356 35.0727 512.163 34.7401 510.58 34.7401C509.043 34.7401 507.856 35.0097 507.018 35.5488C506.192 36.0879 505.779 36.9598 505.779 38.1642C505.779 39.059 506.043 39.8046 506.571 40.4011C507.11 40.9976 507.844 41.5081 508.773 41.9325C509.714 42.3569 510.781 42.7699 511.974 43.1714C513.488 43.6761 514.79 44.2439 515.88 44.8748C516.981 45.5058 517.83 46.2915 518.426 47.2322C519.023 48.1728 519.321 49.3601 519.321 50.7939C519.321 52.2393 518.966 53.4725 518.254 54.4934C517.543 55.5143 516.539 56.2944 515.243 56.8335C513.947 57.3612 512.415 57.625 510.649 57.625Z" fill="black"/>
</svg>
