<svg width="31" height="27" viewBox="0 0 31 27" fill="none" xmlns="http://www.w3.org/2000/svg">
<path fill-rule="evenodd" clip-rule="evenodd" d="M0 2.2C0 1.61652 0.231785 1.05695 0.644365 0.644366C1.05695 0.231786 1.61652 0 2.2 0H28.6C29.1835 0 29.7431 0.231786 30.1556 0.644366C30.5682 1.05695 30.8 1.61652 30.8 2.2C30.8 2.78348 30.5682 3.34306 30.1556 3.75564C29.7431 4.16822 29.1835 4.4 28.6 4.4H2.2C1.61652 4.4 1.05695 4.16822 0.644365 3.75564C0.231785 3.34306 0 2.78348 0 2.2Z" fill="#139FDD"/>
<path fill-rule="evenodd" clip-rule="evenodd" d="M0 13.2C0 12.6165 0.231785 12.0569 0.644365 11.6444C1.05695 11.2318 1.61652 11 2.2 11H28.6C29.1835 11 29.7431 11.2318 30.1556 11.6444C30.5682 12.0569 30.8 12.6165 30.8 13.2C30.8 13.7835 30.5682 14.3431 30.1556 14.7556C29.7431 15.1682 29.1835 15.4 28.6 15.4H2.2C1.61652 15.4 1.05695 15.1682 0.644365 14.7556C0.231785 14.3431 0 13.7835 0 13.2Z" fill="#139FDD"/>
<path fill-rule="evenodd" clip-rule="evenodd" d="M13.2002 24.2C13.2002 23.6165 13.432 23.0569 13.8446 22.6444C14.2571 22.2318 14.8167 22 15.4002 22H28.6002C29.1837 22 29.7433 22.2318 30.1558 22.6444C30.5684 23.0569 30.8002 23.6165 30.8002 24.2C30.8002 24.7835 30.5684 25.3431 30.1558 25.7556C29.7433 26.1682 29.1837 26.4 28.6002 26.4H15.4002C14.8167 26.4 14.2571 26.1682 13.8446 25.7556C13.432 25.3431 13.2002 24.7835 13.2002 24.2Z" fill="#139FDD"/>
</svg>
